<svg xmlns="http://www.w3.org/2000/svg" xmlns:xlink="http://www.w3.org/1999/xlink" width="16px" height="24px">
  <path fill-rule="evenodd"  fill="rgb(0, 0, 0)" d="M15.499,22.500 L14.500,23.499 L11.499,20.499 L8.499,23.499 L7.500,22.500 L10.500,19.499 L7.500,16.499 L8.499,15.500 L11.499,18.500 L14.500,15.500 L15.499,16.499 L12.499,19.499 L15.499,22.500 ZM4.999,3.0 L7.0,3.0 L7.0,10.0 L4.999,10.0 L4.999,3.0 ZM11.0,0.999 L0.999,0.999 L0.999,20.999 L6.0,20.999 L6.0,21.999 L0.0,21.999 L0.0,0.0 L11.999,0.0 L11.999,14.999 L11.0,14.999 L11.0,0.999 Z"/>
</svg>