<svg xmlns="http://www.w3.org/2000/svg" xmlns:xlink="http://www.w3.org/1999/xlink" width="11px" height="16px">
  <path fill-rule="evenodd" d="M10.375,14.624 L9.625,15.374 L7.500,13.249 L5.374,15.374 L4.624,14.624 L6.750,12.499 L4.624,10.375 L5.374,9.625 L7.500,11.749 L9.625,9.625 L10.375,10.375 L8.249,12.499 L10.375,14.624 ZM2.999,2.0 L5.0,2.0 L5.0,7.0 L2.999,7.0 L2.999,2.0 ZM6.999,1.0 L1.0,1.0 L1.0,13.999 L4.0,13.999 L4.0,14.999 L0.0,14.999 L0.0,0.0 L8.0,0.0 L8.0,9.999 L6.999,9.999 L6.999,1.0 Z"/>
</svg>